<svg xmlns="http://www.w3.org/2000/svg" version="1.1" xmlns:xlink="http://www.w3.org/1999/xlink" xmlns:svgjs="http://svgjs.dev/svgjs" width="2000" height="217" viewBox="0 0 2000 217"><g transform="matrix(1,0,0,1,-1.2121212121212466,0.7610369055173578)"><svg viewBox="0 0 396 43" data-background-color="#89939e" preserveAspectRatio="xMidYMid meet" height="217" width="2000" xmlns="http://www.w3.org/2000/svg" xmlns:xlink="http://www.w3.org/1999/xlink"><g id="tight-bounds" transform="matrix(1,0,0,1,0.2400000000000091,-0.15080454809790922)"><svg viewBox="0 0 395.52 43.3016090961958" height="43.3016090961958" width="395.52"><g><svg viewBox="0 0 450.34668898820917 49.30404602632863" height="43.3016090961958" width="395.52"><g transform="matrix(1,0,0,1,54.82668898820921,6.814090297415898)"><svg viewBox="0 0 395.52 35.67586543149683" height="35.67586543149683" width="395.52"><g id="textblocktransform"><svg viewBox="0 0 395.52 35.67586543149683" height="35.67586543149683" width="395.52" id="textblock"><g><svg viewBox="0 0 395.52 35.67586543149683" height="35.67586543149683" width="395.52"><g transform="matrix(1,0,0,1,0,0)"><svg width="395.52" viewBox="4.5 -36.4 410.16 37" height="35.67586543149683" data-palette-color="#000000"><path d="M18.55 0L4.5 0 5-4 5-31 4.5-35 17.55-35Q22.6-35 25.58-32.6 28.55-30.2 28.55-25.75L28.55-25.75Q28.55-23.25 27.35-21.38 26.15-19.5 23.05-18.45L23.05-18.45 23.05-18.15Q25.95-17.55 27.93-15.43 29.9-13.3 29.9-9.4L29.9-9.4Q29.9-6.15 28.45-4.05 27-1.95 24.45-0.98 21.9 0 18.55 0L18.55 0ZM9.25-16.1L9.25-3.8 18.1-3.8Q21.4-3.8 23.4-5.03 25.4-6.25 25.4-9.75L25.4-9.75Q25.4-13.25 23.45-14.68 21.5-16.1 18.25-16.1L18.25-16.1 9.25-16.1ZM9.25-31.2L9.25-19.9 17.95-19.9Q20.6-19.9 22.38-21.28 24.15-22.65 24.15-25.85L24.15-25.85Q24.15-28.9 22.38-30.05 20.6-31.2 17.5-31.2L17.5-31.2 9.25-31.2ZM47.15 0.6L47.15 0.6Q44.15 0.6 41.4-0.7 38.65-2 36.92-4.95 35.2-7.9 35.2-12.75L35.2-12.75Q35.2-16.45 36.2-19 37.2-21.55 38.9-23.13 40.6-24.7 42.75-25.4 44.9-26.1 47.15-26.1L47.15-26.1Q49.4-26.1 51.55-25.4 53.7-24.7 55.4-23.13 57.1-21.55 58.1-19 59.1-16.45 59.1-12.75L59.1-12.75Q59.1-7.9 57.37-4.95 55.65-2 52.92-0.7 50.2 0.6 47.15 0.6ZM47.15-3L47.15-3Q50.7-3 52.75-5.2 54.8-7.4 54.8-12.85L54.8-12.85Q54.8-16.5 53.87-18.6 52.95-20.7 51.25-21.6 49.55-22.5 47.15-22.5L47.15-22.5Q44.75-22.5 43.05-21.6 41.35-20.7 40.42-18.6 39.5-16.5 39.5-12.85L39.5-12.85Q39.5-7.4 41.55-5.2 43.6-3 47.15-3ZM70.8 0L65.59 0 66.09-4 66.09-21.5 65.59-25.5 68.95-25.5 69.75-22.55 70.3-22.55 70.3-4 70.8 0ZM69.25-16.45L69.25-16.45 69.25-21.7 73.65-25.45Q75.45-26.1 77.34-26.1L77.34-26.1Q78.2-26.1 79.09-25.98 80-25.85 80.95-25.45L80.95-25.45 80.95-22.1 80.15-21.6Q79.3-21.9 78.52-22 77.75-22.1 77.09-22.1L77.09-22.1Q74.15-22.1 72.3-20.58 70.45-19.05 69.25-16.45ZM97.19 0.6L97.19 0.6Q94.19 0.6 91.44-0.7 88.69-2 86.97-4.95 85.24-7.9 85.24-12.75L85.24-12.75Q85.24-16.45 86.24-19 87.24-21.55 88.94-23.13 90.64-24.7 92.79-25.4 94.94-26.1 97.19-26.1L97.19-26.1Q99.44-26.1 101.59-25.4 103.74-24.7 105.44-23.13 107.14-21.55 108.14-19 109.14-16.45 109.14-12.75L109.14-12.75Q109.14-7.9 107.42-4.95 105.69-2 102.97-0.7 100.24 0.6 97.19 0.6ZM97.19-3L97.19-3Q100.74-3 102.79-5.2 104.84-7.4 104.84-12.85L104.84-12.85Q104.84-16.5 103.92-18.6 102.99-20.7 101.29-21.6 99.59-22.5 97.19-22.5L97.19-22.5Q94.79-22.5 93.09-21.6 91.39-20.7 90.47-18.6 89.54-16.5 89.54-12.85L89.54-12.85Q89.54-7.4 91.59-5.2 93.64-3 97.19-3ZM138.24 0L133.04 0 133.54-4 133.54-16.75Q133.54-19.5 131.99-20.9 130.44-22.3 127.39-22.3L127.39-22.3Q124.99-22.3 123.29-21.6 121.59-20.9 120.52-20.03 119.44-19.15 118.89-18.55L118.89-18.55 118.89-21.45 124.29-25.55Q125.29-25.8 126.34-25.95 127.39-26.1 128.49-26.1L128.49-26.1Q130.89-26.1 132.99-25.28 135.09-24.45 136.42-22.45 137.74-20.45 137.74-16.9L137.74-16.9 137.74-4 138.24 0ZM120.84 0L115.64 0 116.14-4 116.14-21.6 115.64-25.5 119.64-25.5 120.34-22.55 120.34-4 120.84 0ZM150.54-29.7L150.54-29.7Q149.34-29.7 148.49-30.48 147.64-31.25 147.64-32.6L147.64-32.6Q147.64-33.95 148.49-34.73 149.34-35.5 150.54-35.5L150.54-35.5Q151.74-35.5 152.59-34.73 153.44-33.95 153.44-32.6L153.44-32.6Q153.44-31.25 152.59-30.48 151.74-29.7 150.54-29.7ZM153.94 0L148.74 0 149.24-4 149.24-22.1 144.04-22.1 144.04-25.5 153.94-25.5 153.44-21.5 153.44-4 153.94 0ZM170.64-3.95L171.44-3.45 171.44 0Q170.94 0.25 170.29 0.43 169.64 0.6 168.59 0.6L168.59 0.6Q167.09 0.6 165.71 0.13 164.34-0.35 163.44-1.7 162.54-3.05 162.54-5.6L162.54-5.6 162.54-32.4 162.04-36.4 167.24-36.4 166.74-32.4 166.74-5.65Q166.74-4.55 167.26-3.98 167.79-3.4 168.94-3.4L168.94-3.4Q169.49-3.4 169.89-3.55 170.29-3.7 170.64-3.95L170.64-3.95ZM188.08 0.6L188.08 0.6Q185.08 0.6 182.33-0.7 179.58-2 177.86-4.95 176.13-7.9 176.13-12.75L176.13-12.75Q176.13-16.45 177.13-19 178.13-21.55 179.83-23.13 181.53-24.7 183.68-25.4 185.83-26.1 188.08-26.1L188.08-26.1Q190.33-26.1 192.48-25.4 194.63-24.7 196.33-23.13 198.03-21.55 199.03-19 200.03-16.45 200.03-12.75L200.03-12.75Q200.03-7.9 198.31-4.95 196.58-2 193.86-0.7 191.13 0.6 188.08 0.6ZM188.08-3L188.08-3Q191.63-3 193.68-5.2 195.73-7.4 195.73-12.85L195.73-12.85Q195.73-16.5 194.81-18.6 193.88-20.7 192.18-21.6 190.48-22.5 188.08-22.5L188.08-22.5Q185.68-22.5 183.98-21.6 182.28-20.7 181.36-18.6 180.43-16.5 180.43-12.85L180.43-12.85Q180.43-7.4 182.48-5.2 184.53-3 188.08-3ZM218.43 0L213.43 0 204.03-25.5 209.03-25.5 210.13-21.5 215.53-5.05 215.78-2.7 216.08-2.7 216.33-5.05 221.73-21.5 222.83-25.5 227.83-25.5 218.43 0ZM261.08 0.6L261.08 0.6Q255.88 0.6 252.38-1.55 248.88-3.7 247.1-7.75 245.33-11.8 245.33-17.4L245.33-17.4Q245.33-23.75 247.38-27.75 249.43-31.75 252.88-33.68 256.33-35.6 260.53-35.6L260.53-35.6Q263.18-35.6 265.58-34.95 267.98-34.3 270.13-33.05L270.13-33.05 270.13-29.2 269.13-28.7Q267.53-30 265.38-30.85 263.23-31.7 260.43-31.7L260.43-31.7Q257.38-31.7 254.98-30.35 252.58-29 251.2-25.88 249.83-22.75 249.83-17.4L249.83-17.4Q249.83-10 252.65-6.65 255.48-3.3 261.03-3.3L261.03-3.3Q263.38-3.3 265.45-3.93 267.53-4.55 269.53-6L269.53-6 270.53-5.5 270.53-1.65Q268.48-0.55 266.13 0.03 263.78 0.6 261.08 0.6ZM281.47-29.7L281.47-29.7Q280.27-29.7 279.42-30.48 278.57-31.25 278.57-32.6L278.57-32.6Q278.57-33.95 279.42-34.73 280.27-35.5 281.47-35.5L281.47-35.5Q282.67-35.5 283.52-34.73 284.37-33.95 284.37-32.6L284.37-32.6Q284.37-31.25 283.52-30.48 282.67-29.7 281.47-29.7ZM284.87 0L279.67 0 280.17-4 280.17-22.1 274.97-22.1 274.97-25.5 284.87-25.5 284.37-21.5 284.37-4 284.87 0ZM315.57 0L310.37 0 310.87-4 310.87-16.75Q310.87-19.5 309.32-20.9 307.77-22.3 304.72-22.3L304.72-22.3Q302.32-22.3 300.62-21.6 298.92-20.9 297.85-20.03 296.77-19.15 296.22-18.55L296.22-18.55 296.22-21.45 301.62-25.55Q302.62-25.8 303.67-25.95 304.72-26.1 305.82-26.1L305.82-26.1Q308.22-26.1 310.32-25.28 312.42-24.45 313.75-22.45 315.07-20.45 315.07-16.9L315.07-16.9 315.07-4 315.57 0ZM298.17 0L292.97 0 293.47-4 293.47-21.6 292.97-25.5 296.97-25.5 297.67-22.55 297.67-4 298.17 0ZM321.57-12.8L321.57-12.8Q321.57-17.75 323.19-20.68 324.82-23.6 327.47-24.85 330.12-26.1 333.12-26.1L333.12-26.1Q336.57-26.1 338.89-24.73 341.22-23.35 342.39-20.83 343.57-18.3 343.57-14.8L343.57-14.8Q343.57-13.8 343.47-12.95 343.37-12.1 343.22-11.35L343.22-11.35 323.77-11.35 323.77-12.25 328.27-14.75 339.32-14.75Q339.32-17 338.84-18.75 338.37-20.5 337.02-21.5 335.67-22.5 333.07-22.5L333.07-22.5Q330.37-22.5 328.79-21.33 327.22-20.15 326.54-18.05 325.87-15.95 325.87-13.15L325.87-13.15Q325.87-9.8 326.62-7.75 327.37-5.7 328.62-4.7 329.87-3.7 331.37-3.35 332.87-3 334.37-3L334.37-3Q336.72-3 338.44-3.48 340.17-3.95 341.52-4.75L341.52-4.75 342.32-4.25 342.32-0.65Q340.77-0.1 338.89 0.25 337.02 0.6 334.82 0.6L334.82 0.6Q332.42 0.6 330.04 0.03 327.67-0.55 325.77-2 323.87-3.45 322.72-6.08 321.57-8.7 321.57-12.8ZM386.92 0L381.72 0 382.22-4 382.22-16.55Q382.22-19.45 380.62-20.88 379.02-22.3 376.42-22.3L376.42-22.3Q374.12-22.3 372.49-21.43 370.87-20.55 369.81-19.45 368.77-18.35 368.27-17.7L368.27-17.7 368.27-21.35 373.47-25.6Q374.56-25.9 375.54-26 376.52-26.1 377.31-26.1L377.31-26.1Q380.67-26.1 382.67-24.98 384.67-23.85 385.54-22 386.42-20.15 386.42-17.95L386.42-17.95 386.42-4 386.92 0ZM354.92 0L349.72 0 350.22-4 350.22-21.5 349.72-25.5 353.47-25.5 354.42-20.1 354.42-4 354.92 0ZM370.92 0L365.72 0 366.22-4 366.22-16.55Q366.22-19.45 364.67-20.88 363.12-22.3 360.52-22.3L360.52-22.3Q358.27-22.3 356.59-21.45 354.92-20.6 353.87-19.55 352.81-18.5 352.31-17.9L352.31-17.9 352.31-21.35 357.52-25.6Q358.87-25.9 359.94-26 361.02-26.1 361.77-26.1L361.77-26.1Q364.92-26.1 366.81-24.98 368.72-23.85 369.56-22 370.42-20.15 370.42-17.95L370.42-17.95 370.42-4 370.92 0ZM414.66 0L410.71 0 409.96-2.65 409.96-16.25Q409.96-18.25 409.41-19.63 408.86-21 407.26-21.75 405.66-22.5 402.51-22.5L402.51-22.5Q400.66-22.5 399.09-22.15 397.51-21.8 396.06-20.85L396.06-20.85 395.26-21.35 395.26-24.95Q397.46-25.65 399.39-25.88 401.31-26.1 402.96-26.1L402.96-26.1Q407.31-26.1 409.74-24.95 412.16-23.8 413.16-21.58 414.16-19.35 414.16-16.1L414.16-16.1 414.16-4 414.66 0ZM402.26 0.6L402.26 0.6Q400.06 0.6 397.91-0.13 395.76-0.85 394.34-2.63 392.91-4.4 392.91-7.5L392.91-7.5Q392.91-9.9 393.81-11.5 394.71-13.1 396.24-14 397.76-14.9 399.66-15.28 401.56-15.65 403.56-15.65L403.56-15.65Q404.76-15.65 405.79-15.55 406.81-15.45 407.81-15.2L407.81-15.2 410.41-13.35 410.41-11.05Q409.11-11.75 407.64-12.03 406.16-12.3 404.26-12.3L404.26-12.3Q400.76-12.3 398.94-11.28 397.11-10.25 397.11-7.45L397.11-7.45Q397.11-5.15 398.46-4.03 399.81-2.9 402.81-2.9L402.81-2.9Q405.91-2.9 407.74-3.9 409.56-4.9 410.56-6.3L410.56-6.3 411.56-4.05 406.76 0Q405.76 0.25 404.61 0.43 403.46 0.6 402.26 0.6Z" opacity="1" transform="matrix(1,0,0,1,0,0)" fill="#ffffff" class="wordmark-text-0" data-fill-palette-color="primary" id="text-0"></path></svg></g></svg></g></svg></g></svg></g><g><svg viewBox="0 0 46.404473380603164 49.30404602632863" height="49.30404602632863" width="46.404473380603164"><g><svg version="1.1" xmlns="http://www.w3.org/2000/svg" xmlns:xlink="http://www.w3.org/1999/xlink" x="0" y="0" viewBox="0 0 94.11901231775455 100.00001674853281" enable-background="new 0 0 94.119 100" xml:space="preserve" id="icon-0" width="46.404473380603164" height="49.30404602632863" class="icon-icon-0" data-fill-palette-color="accent"><polygon points="82.354,0 69.118,3.861 75.552,21.324 88.235,17.647 " fill="#ffffff" data-fill-palette-color="accent"></polygon><polygon points="61.031,6.067 43.75,11.029 44.118,11.765 47.427,20.772 50.368,28.493 67.648,23.53 " fill="#ffffff" data-fill-palette-color="accent"></polygon><polygon points="35.846,13.235 20.589,17.647 27.207,35.111 42.464,30.699 38.604,20.772 " fill="#ffffff" data-fill-palette-color="accent"></polygon><polygon points="12.684,19.853 0,23.53 5.883,41.177 19.118,37.317 " fill="#ffffff" data-fill-palette-color="accent"></polygon><path d="M5.883 41.177V94.118A5.87 5.87 0 0 0 11.765 100H88.235A5.87 5.87 0 0 0 94.119 94.118V41.177zM82.354 70.588H17.647V52.942H82.353z" fill="#ffffff" data-fill-palette-color="accent"></path></svg></g></svg></g></svg></g><defs></defs></svg><rect width="395.52" height="43.3016090961958" fill="none" stroke="none" visibility="hidden"></rect></g></svg></g></svg>